<?xml version="1.0" standalone="no"?>
<!DOCTYPE svg PUBLIC "-//W3C//DTD SVG 1.1//EN" "http://www.w3.org/Graphics/SVG/1.1/DTD/svg11.dtd" >
<!--
2013-9-30: Created.
-->
<svg>
<metadata>
Created by iconfont
</metadata>
<defs>

<font id="iconfont" horiz-adv-x="1024" >
  <font-face
    font-family="iconfont"
    font-weight="500"
    font-stretch="normal"
    units-per-em="1024"
    ascent="896"
    descent="-128"
  />
    <missing-glyph />
    
    <glyph glyph-name="calendar" unicode="&#58890;" d="M875.53482979 748.14957795H729.98397725v36.68460886c0 19.93389511-16.15925134 36.09314645-36.09314646 36.09314645h-0.58680548c-19.93389511 0-36.09314645-16.15925134-36.09314645-36.09314645v-36.68460886H366.11965155v36.68460886c0 19.93389511-16.15925134 36.09314645-36.09314645 36.09314645h-0.58680547c-19.93389511 0-36.09314645-16.15925134-36.09314646-36.09314645v-36.68460886H147.79570062c-40.18913621 0-72.76844032-32.57930411-72.76844145-72.76844145v-654.95671695c0-40.18913621 32.57930411-72.76844032 72.76844145-72.76844032h727.73912917c40.18913621 0 72.76844032 32.57930411 72.76844146 72.76844032V675.3811365c0 40.18913621-32.57930411 72.76844032-72.76844146 72.76844145z m-0.00465692-691.63201194c0-19.93389511-16.15925134-36.09314645-36.09314645-36.09314646H183.893504c-19.93389511 0-36.09314645 16.15925134-36.09314645 36.09314646V457.06300757h727.72981532v-400.54544156z m0 473.31853881H147.80035755v109.45305031c0 19.93389511 16.15925134 36.09314645 36.09314645 36.09314645h109.45304917v-36.67995193c0-19.93389511 16.15925134-36.09314645 36.09314646-36.09314645h0.58680547c19.93389511 0 36.09314645 16.15925134 36.09314645 36.09314645v36.67995193h291.09239126v-36.67995193c0-19.93389511 16.15925134-36.09314645 36.09314759-36.09314645h0.58680434c19.93389511 0 36.09314645 16.15925134 36.09314645 36.09314645v36.67995193h109.45304918c19.93389511 0 36.09314645-16.15925134 36.09314645-36.09314645v-109.45305031zM256.66660238 311.51681195000003h73.35990272c19.93389511 0 36.09314645 16.15925134 36.09314645 36.09314645v0.58680434c0 19.93389511-16.15925134 36.09314645-36.09314645 36.09314645h-73.35990272c-19.93389511 0-36.09314645-16.15925134-36.09314645-36.09314645v-0.58680434c0-19.93389511 16.15925134-36.09314645 36.09314645-36.09314645zM474.98589639 311.51681195000003h73.35990272c19.93389511 0 36.09314645 16.15925134 36.09314646 36.09314645v0.58680434c0 19.93389511-16.15925134 36.09314645-36.09314646 36.09314645h-73.35990272c-19.93389511 0-36.09314645-16.15925134-36.09314759-36.09314645v-0.58680434c0-19.93389511 16.15925134-36.09314645 36.09314759-36.09314645zM693.3051904 311.51681195000003h73.35990158c19.93389511 0 36.09314645 16.15925134 36.09314759 36.09314645v0.58680434c0 19.93389511-16.15925134 36.09314645-36.09314759 36.09314645h-73.35990158c-19.93389511 0-36.09314645-16.15925134-36.09314759-36.09314645v-0.58680434c0-19.93389511 16.15925134-36.09314645 36.09314759-36.09314645zM256.66660238 165.97061517999998h73.35990272c19.93389511 0 36.09314645 16.15925134 36.09314645 36.09314759v0.58680434c0 19.93389511-16.15925134 36.09314645-36.09314645 36.09314646h-73.35990272c-19.93389511 0-36.09314645-16.15925134-36.09314645-36.09314646v-0.58680434c0-19.93389511 16.15925134-36.09314645 36.09314645-36.09314759zM474.98589639 165.97061517999998h73.35990272c19.93389511 0 36.09314645 16.15925134 36.09314646 36.09314759v0.58680434c0 19.93389511-16.15925134 36.09314645-36.09314646 36.09314646h-73.35990272c-19.93389511 0-36.09314645-16.15925134-36.09314759-36.09314646v-0.58680434c0-19.93389511 16.15925134-36.09314645 36.09314759-36.09314759zM693.3051904 165.97061517999998h73.35990158c19.93389511 0 36.09314645 16.15925134 36.09314759 36.09314759v0.58680434c0 19.93389511-16.15925134 36.09314645-36.09314759 36.09314646h-73.35990158c-19.93389511 0-36.09314645-16.15925134-36.09314759-36.09314646v-0.58680434c0-19.93389511 16.15925134-36.09314645 36.09314759-36.09314759z"  horiz-adv-x="1024" />

    
    <glyph glyph-name="shuangsanjiao-zuo" unicode="&#58986;" d="M949.55353125 10.654757919999952a41.42482015 41.42482015 0 0 0-58.51272533-58.51272533l-402.86071467 402.86071466a41.42482015 41.42482015 0 0 0 0 58.51272534L891.04080592 816.37618725a41.42482015 41.42482015 0 0 0 58.51272533-58.51393895L576.20950282 384z m-414.25184238 0a41.42482015 41.42482015 0 0 0-58.51272532-58.51272533L73.92824889 355.00274724999997a41.42482015 41.42482015 0 0 0 0 58.51272534l402.86071466 402.86071466a41.42482015 41.42482015 0 0 0 58.51272532-58.51393895L161.95644682 384z"  horiz-adv-x="1024" />

    
    <glyph glyph-name="shuangsanjiao-you" unicode="&#58985;" d="M74.44646875 757.3452420799999a41.42482015 41.42482015 0 0 0 58.51272533 58.51272533l402.86071467-402.86071466a41.42482015 41.42482015 0 0 0 0-58.51272534L132.95919408-48.376187250000044a41.42482015 41.42482015 0 0 0-58.51272533 58.51393895L447.79049718 384z m414.25184238 0a41.42482015 41.42482015 0 0 0 58.51272532 58.51272533L950.07175111 412.99725275a41.42482015 41.42482015 0 0 0 0-58.51272534l-402.86071466-402.86071466a41.42482015 41.42482015 0 0 0-58.51272532 58.51393895L862.04355318 384z"  horiz-adv-x="1024" />

    
    <glyph glyph-name="checkbox-indeterminate" unicode="&#58984;" d="M136.99944802 833.99962675H887.00184652a75.0003693 75.0003693 0 0 0 74.99907476-74.99907477V8.998153480000042a75.0003693 75.0003693 0 0 0-74.99907476-74.99907476H136.99815348a75.0003693 75.0003693 0 0 0-74.99907476 74.99907476V759.00184652a75.0003693 75.0003693 0 0 0 74.99907476 74.99907476z m187.50092327-412.4994421a37.50018465 37.50018465 0 0 1 0-75.0003693h374.99925742a37.50018465 37.50018465 0 1 1 0 75.0003693H324.50037129z"  horiz-adv-x="1024" />

    
    <glyph glyph-name="radio-selected" unicode="&#58964;" d="M512 810.6665625C276.4803125 810.6665625 85.3334375 619.5196874999999 85.3334375 384S276.4803125-42.666562500000055 512-42.666562500000055 938.6665625 148.48031249999997 938.6665625 384 747.5196875 810.6665625 512 810.6665625z m0-796.44375c-203.6625 0-369.778125 166.115625-369.778125 369.7771875S308.3375 753.778125 512 753.778125 881.778125 587.6625 881.778125 384 715.6625 14.221874999999955 512 14.221874999999955zM261.6884375 384A250.3115625 250.3115625 0 1 1 762.3125 384 250.3115625 250.3115625 0 1 1 261.6875 384z"  horiz-adv-x="1024" />

    
    <glyph glyph-name="radio-unselect" unicode="&#58981;" d="M509.30736039-45.579580050000004C270.5737905-45.579580050000004 77.03514075 147.97978231000002 77.03514075 386.69263961 77.03514075 625.4262095 270.5737905 818.96485925 509.30736039 818.96485925c238.7335699 0 432.27221965-193.53864976 432.27221966-432.27221964 0-238.7335699-193.53864976-432.27221965-432.27221966-432.27221966z m0 62.13783703c204.41277123 0 370.13438261 165.72161138 370.13438263 370.13438263C879.44174302 591.12612347 713.69941902 756.82702222 509.30736039 756.82702222 304.87387653 756.82702222 139.17297778 591.12612347 139.17297778 386.69263961c0-204.41277123 165.70089876-370.13438261 370.13438261-370.13438263z"  horiz-adv-x="1040" />

    
    <glyph glyph-name="checkbox-selected" unicode="&#58982;" d="M865.133 831.66H156.88c-51.3 0-92.886-41.587-92.886-92.885v-708.253c0-51.299 41.586-92.886 92.886-92.886h708.253c51.3 0 92.886 41.587 92.886 92.886V738.775c0 51.298-41.586 92.885-92.886 92.885zM752.128 505.037L449.775 202.68399999999997c-5.965-5.964-16.312-5.285-23.114 1.516l-20.274 20.274L270.922 359.94000000000005c-6.802 6.801-6.802 17.829 0 24.63l36.945 36.946c6.801 6.803 17.828 6.803 24.63 0l106.48-106.48 251.576 251.577c5.964 5.964 16.312 5.285 23.113-1.517l36.944-36.943c6.804-6.804 7.482-17.15 1.518-23.115z"  horiz-adv-x="1024" />

    
    <glyph glyph-name="checkbox-unselect" unicode="&#58983;" d="M812.084-62.259000000000015H211.055c-80.65 0-146.194 65.6-146.194 146.224v601.03c0 80.595 65.546 146.166 146.194 146.166h601.029c80.596 0 146.195-65.571 146.195-146.167v-601.03c0-80.623-65.6-146.223-146.195-146.223zM211.055 779.222c-51.966 0-94.228-42.261-94.228-94.228v-601.03c0-51.966 42.262-94.255 94.228-94.255h601.029c51.967 0 94.228 42.289 94.228 94.256v601.03c0 51.966-42.261 94.227-94.228 94.227H211.055z"  horiz-adv-x="1097" />

    
    <glyph glyph-name="windows" unicode="&#59480;" d="M921.6 793.6H284.4444448v-91.02222187h591.64444373v-500.62222293h91.02222294V748.08888853a45.51111147 45.51111147 0 0 1-45.51111147 45.51111147zM102.4-25.600000000000023h637.1555552a45.51111147 45.51111147 0 0 1 45.51111147 45.51111147V566.0444448000001a45.51111147 45.51111147 0 0 1-45.51111147 45.5111104H102.4a45.51111147 45.51111147 0 0 1-45.51111147-45.5111104v-546.13333333a45.51111147 45.51111147 0 0 1 45.51111147-45.51111147z m45.51111147 455.11111147h546.13333333v-364.0888896H147.91111147v364.0888896z"  horiz-adv-x="1024" />

    
    <glyph glyph-name="switch" unicode="&#58880;" d="M712.00000039 733.9999998000001H411.9999998a349.9999998 349.9999998 0 1 1 0-699.9999996h300.00000059a349.9999998 349.9999998 0 1 1 0 699.9999996z m0-599.99999941H411.9999998c-137.85000029 0-249.99999961 112.15000019-249.9999996 249.99999961s112.15000019 249.99999961 249.9999996 249.99999961h300.00000059c137.85000029 0 249.99999961-112.15000019 249.99999961-249.99999961s-112.15000019-249.99999961-249.99999961-249.99999961zM562.0000001 384a150.00000029 150.00000029 0 1 0-299.99999971 0 150.00000029 150.00000029 0 0 0 299.99999971 0z"  horiz-adv-x="1137" />

    
    <glyph glyph-name="link" unicode="&#58902;" d="M949.13422222 784.61155555c0 2.38933333-0.22755555 4.66488889-0.68266667 6.82666667v0.11377778l-0.34133333 1.36533333c0 0.11377778-0.11377778 0.34133333-0.11377777 0.45511112-0.11377778 0.34133333-0.11377778 0.56888889-0.22755556 0.91022222-0.11377778 0.34133333-0.22755555 0.68266667-0.22755556 0.91022222 0 0.11377778-0.11377778 0.34133333-0.11377778 0.45511111-1.70666667 5.34755555-4.66488889 10.35377778-8.87466666 14.56355555-2.048 2.048-4.43733333 3.86844445-6.82666667 5.34755556 0 0-0.11377778 0-0.11377777 0.11377778-0.22755555 0.11377778-0.56888889 0.34133333-0.79644445 0.45511111-5.34755555 3.072-11.49155555 4.77866667-17.97688889 4.77866667h-218.45333333c-20.02488889 0-36.40888889-16.384-36.40888889-36.40888889s16.384-36.40888889 36.40888889-36.40888889H824.88888889L595.85422222 519.168c-14.10844445-14.10844445-14.10844445-37.31911111 0-51.54133333 14.10844445-14.10844445 37.31911111-14.10844445 51.54133333 0l228.9208889 228.92088888v-130.84444444c0-20.02488889 16.384-36.40888889 36.40888888-36.40888889s36.40888889 16.384 36.40888889 36.40888889v218.45333334 0.4551111zM839.90755555 505.05955555c-20.13866667 0-36.40888889-16.27022222-36.40888888-36.40888888v-449.08088889H147.91111111V675.27111111h449.19466667c20.13866667 0 36.40888889 16.27022222 36.40888889 36.40888889s-16.27022222 36.40888889-36.40888889 36.40888889H111.50222222c-20.13866667 0-36.40888889-16.27022222-36.40888889-36.40888889v-728.40533333c0-20.13866667 16.27022222-36.40888889 36.40888889-36.40888889h728.40533333c20.13866667 0 36.40888889 16.27022222 36.4088889 36.40888889V468.65066667c0 20.13866667-16.27022222 36.40888889-36.4088889 36.40888888z"  horiz-adv-x="1024" />

    
    <glyph glyph-name="chart-bar" unicode="&#58919;" d="M759.5 215.25h39.375c11.25 0 22.5 11.25 22.5 22.5V642.75c0 11.25-11.25 22.5-22.5 22.5h-39.375c-11.25 0-22.5-11.25-22.5-22.5v-405c0-11.25 11.25-22.5 22.5-22.5z m-337.5 0h39.375c11.25 0 22.5 11.25 22.5 22.5V586.5c0 11.25-11.25 22.5-22.5 22.5h-39.375c-11.25 0-22.5-11.25-22.5-22.5v-348.75c0-11.25 11.25-22.5 22.5-22.5z m168.75 0h39.375c11.25 0 22.5 11.25 22.5 22.5V474c0 11.25-11.25 22.5-22.5 22.5h-39.375c-11.25 0-22.5-11.25-22.5-22.5v-236.25c0-11.25 11.25-22.5 22.5-22.5zM933.875 130.875H146.375V693.375c0 15.5390625-12.5859375 28.125-28.125 28.125H90.125C74.5859375 721.5 62 708.9140625 62 693.375v-590.625c0-31.06054688 25.18945313-56.25 56.25-56.25h815.625c15.5390625 0 28.125 12.5859375 28.125 28.125v28.125c0 15.5390625-12.5859375 28.125-28.125 28.125z m-680.625 84.375h39.375c11.25 0 22.5 11.25 22.5 22.5v123.75c0 11.25-11.25 22.5-22.5 22.5h-39.375c-11.25 0-22.5-11.25-22.5-22.5v-123.75c0-11.25 11.25-22.5 22.5-22.5z"  horiz-adv-x="1024" />

    
    <glyph glyph-name="shizhong" unicode="&#58951;" d="M512 772.36125A388.36125 388.36125 0 1 0 123.63875 384 388.36125 388.36125 0 0 0 512 772.36125m0 72.8184375A461.1796875 461.1796875 0 1 1 973.1796875 384 461.1796875 461.1796875 0 0 1 512 845.1796875zM644.043125 339.09562500000004l-95.634375 95.634375V675.2709375a36.40875 36.40875 0 0 1-72.8175 0v-255.346875a36.1659375 36.1659375 0 0 1 1.9415625-10.1953125 35.195625 35.195625 0 0 1 2.67-5.825625 36.40875 36.40875 0 0 1 2.9128125-4.6115625 34.224375 34.224375 0 0 1 2.9128125-4.36875l106.55625-108.013125a36.40875 36.40875 0 0 1 51.4584375 51.4575z"  horiz-adv-x="1024" />

    
    <glyph glyph-name="huakuai" unicode="&#58980;" d="M212.00029297 534.0002929699999C129.5 534.0002929699999 62 601.5002929699999 62 683.99970703S129.5 834 212.00029297 834s149.99941406-67.5 149.99941406-150.00029297-67.5-149.99941406-149.99941406-149.99941406z m0 225c-41.25058594 0-75.00058594-33.75-75.00058594-75.00058594S170.74970703 609 212.00029297 609 287 642.75 287 683.99970703s-33.75 75.00058594-74.99970703 75.00058594z m450-525.00058594C579.5 233.99970702999997 512 301.49970702999997 512 384s67.5 150.00029297 150.00029297 150.00029297S811.99970703 466.50029297 811.99970703 384s-67.5-150.00029297-149.99941406-150.00029297z m0 225c-41.25058594 0-75.00058594-33.75-75.00058594-74.99970703s33.75-74.99970703 75.00058594-74.99970703S737 342.75029297000003 737 384s-33.75 74.99970703-74.99970703 74.99970703z m262.49941406 187.50058594H324.50029297c-22.5 0-37.50029297 14.99941406-37.50029297 37.49941406S302.00029297 721.5 324.50029297 721.5h599.99941406c22.5 0 37.50029297-15.00029297 37.50029297-37.50029297s-15.00029297-37.49941406-37.50029297-37.49941406z m0-300.00058594H774.50029297C752.00029297 346.49970702999997 737 361.5 737 384s15.00029297 37.50029297 37.50029297 37.50029297h149.99941406c22.5 0 37.50029297-15.00029297 37.50029297-37.50029297s-15.00029297-37.50029297-37.50029297-37.50029297z m-374.99941406 0h-450C77.00029297 346.49970702999997 62 361.5 62 384s15.00029297 37.50029297 37.50029297 37.50029297h450c22.5 0 37.49941406-15.00029297 37.49941406-37.50029297s-14.99941406-37.50029297-37.49941406-37.50029297z m-112.5-412.49970703C354.5-66 287 1.5 287 84.00029297000003s67.5 149.99941406 150.00029297 149.99941406 149.99941406-67.5 149.99941406-149.99941406S519.49970703-66 437.00029297-66z m0 225c-41.25058594 0-75.00058594-33.75-75.00058594-74.99970703s33.75-75.00058594 75.00058594-75.00058594S512 42.74970702999997 512 84.00029297000003 478.25 159 437.00029297 159z m487.49941406-112.5H549.50029297c-22.5 0-37.50029297 15.00029297-37.50029297 37.50029297s15.00029297 37.49941406 37.50029297 37.49941406h374.99941406c22.5 0 37.50029297-14.99941406 37.50029297-37.49941406S946.99970703 46.5 924.49970703 46.5z m-599.99941406 0h-225C77.00029297 46.5 62 61.50029297000003 62 84.00029297000003s15.00029297 37.49941406 37.50029297 37.49941406h225c22.5 0 37.49941406-14.99941406 37.49941406-37.49941406S347.00029297 46.5 324.50029297 46.5z"  horiz-adv-x="1024" />

    
    <glyph glyph-name="shangxiaqiehuan" unicode="&#58979;" d="M512-15.872l319.872 319.936H192.064L512-15.872z m0 799.744L192.064 464h639.808L512 783.872z"  horiz-adv-x="1024" />

    
    <glyph glyph-name="xiala" unicode="&#58978;" d="M944.36396886 632.79367508c-15.08246403 15.08246403-35.19241606 20.10995203-55.30236811 20.10995203l-754.1232015-5.02748801c-20.10995203 0-40.21990407-5.02748801-55.30236811-20.10995206-30.16492806-30.16492806-30.16492806-75.41232014 0-105.57724819l377.06160074-377.06160074c0 0 0 0 0 0 0 0 0 0 0 0 5.02748801-5.02748801 15.08246403-10.05497602 20.10995206-15.08246405 0 0 5.02748801-5.02748801 5.027488-5.02748801 25.13744005-10.05497602 60.32985613-5.02748801 80.43980817 15.08246403l377.06160072 382.08908877C974.52889692 557.38135491 969.50140891 602.62874701 944.36396886 632.79367508z"  horiz-adv-x="1024" />

    
    <glyph glyph-name="shangla" unicode="&#58920;" d="M944.212027 221.95847535999997c18.91229266-20.07420103 24.7575854-49.06828299 14.87242674-74.88052366-9.77790559-25.81224066-33.46296019-43.65200257-60.97337458-45.99369475H123.88686339c-27.4031613 2.44894528-50.98096285 20.39596027-60.75886845 46.10094783-9.77790559 25.70498759-3.93261282 54.80632263 14.97967984 74.77327058l387.2729875 423.48877667a60.93047335 60.93047335 0 0 0 45.77918861 20.71771947c17.53587819 0 34.21373173-7.54346645 45.77918861-20.71771947l387.2729875-423.48877667z m0 0"  horiz-adv-x="1024" />

    
    <glyph glyph-name="baocun-shixin" unicode="&#58953;" d="M263.44865185 825.86863186V549.70089876h497.1026963V799.0535661l193.31728371-198.48249141v-575.5905517a82.85044939 82.85044939 0 0 0-82.85044937-82.85044939H760.55134815v414.25224691H263.44865185v-414.25224691h-110.46683434a82.85044939 82.85044939 0 0 0-82.85044937 82.85044939V743.01947701a82.85044939 82.85044939 0 0 0 82.85044937 82.85044939H263.44865185z m414.25224691-579.95314567v-303.78411805H346.29910124V245.91548619000002h331.40179752z m-55.23406443-55.2327699H401.53316567v-82.85044939h220.93366866v82.85044939zM677.70089876 825.86863186V632.55134815H346.29910124V825.86863186h331.40179752z"  horiz-adv-x="1024" />

    
    <glyph glyph-name="tiaoseban" unicode="&#58972;" d="M689.439 220.15999999999997v-122.88c0-90.48-74.978-163.84-167.465-163.84C267.612-66.55999999999995 61.44 135.168 61.44 384S267.633 834.56 521.974 834.56c169.37 0 319.815-88.064 397.414-222.74 33.157-57.57 47.207-113.03 42.189-166.38 0-56.545-46.879-102.4-104.673-102.4h-41.882c-69.366 0-125.583-55.01-125.583-122.88zM491.52 35.84000000000003a81.92 81.92 0 1 1 0 163.84 81.92 81.92 0 0 1 0-163.84z m-204.8 163.84a81.92 81.92 0 1 1 0 163.84 81.92 81.92 0 0 1 0-163.84z m-20.48 245.76a81.92 81.92 0 1 1 0 163.84 81.92 81.92 0 0 1 0-163.84z m204.8 122.88a81.92 81.92 0 1 1 0 163.84 81.92 81.92 0 0 1 0-163.84z m225.28-61.44a81.92 81.92 0 1 1 0 163.84 81.92 81.92 0 0 1 0-163.84z"  horiz-adv-x="1024" />

    
    <glyph glyph-name="lajitong-shixin" unicode="&#58973;" d="M379.37948445 711.5264h257.19125333c22.54051555 0 35.10727111 20.06357333 35.10727111 44.84892445v19.20568888c0 24.76487111-12.56675555 44.85802667-35.10727111 44.85802667H379.38062222c-22.54051555 0-40.81436445-20.09315555-40.81436444-44.85916445v-19.2045511c-0.00113778-24.78421333 18.27271111-44.84892445 40.81436444-44.84892445z m364.29710222-17.93024H288.74638222c-123.98136889 0-142.16988445-9.56529778-142.16988444-130.13902222l65.37898667 0.02958222v-0.03072h592.23153777v0.34247111l66.83306667 0.03413334c-0.00682667 120.56803555-3.35758222 129.76355555-127.34350222 129.76355555zM211.95434667 114.37511111000003c0-175.38048 62.3616-166.74588445 183.53152-166.74588444H695.62595555c77.43829333 7.51616 108.56106667 9.10677333 108.56106667 184.48725333V499.54360889H211.95434667v-385.16849778z m394.60181333 304.73443556c0 23.60433778 14.71374222 42.74062222 32.85333333 42.74062222 18.15552 0 32.86926222-19.13742222 32.86926222-42.74062222v-362.12508445c0-23.59409778-14.71488-42.72583111-32.8704-42.72583111-18.13845333 0-32.85219555 19.13287111-32.85219555 42.72583111V419.10954667z m-131.42471111 0c0 23.60433778 14.71032889 42.74062222 32.86471111 42.74062222 18.14300445 0 32.84992-19.13742222 32.84992-42.74062222v-362.12508445c0-23.59409778-14.70691555-42.72583111-32.84992-42.72583111-18.15324445 0-32.86584889 19.13287111-32.86584889 42.72583111V419.10954667z m-131.42016 0c0 23.60433778 14.70691555 42.74062222 32.84764444 42.74062222 18.15096889 0 32.85447111-19.13742222 32.85447112-42.74062222v-362.12508445c0-23.59409778-14.70236445-42.72583111-32.85447112-42.72583111-18.14072889 0-32.84764445 19.13287111-32.84764444 42.72583111V419.10954667z m0 0"  horiz-adv-x="1024" />

    
    <glyph glyph-name="baocunkongxin" unicode="&#58974;" d="M734.45345659 825.86863186l219.41517527-225.29755717v-575.5905517a82.85044939 82.85044939 0 0 0-82.85044937-82.85044939H152.98181751a82.85044939 82.85044939 0 0 0-82.85044937 82.85044939V743.01947701a82.85044939 82.85044939 0 0 0 82.85044937 82.85044939H734.45345659zM263.44865185 743.04666231l-110.46683434-0.02847982v-718.03636498l110.46683434 0.02718532V356.38361505h497.1026963v-331.37461222l110.46683434-0.02718532V566.87812709L760.55134815 680.3288721399999V549.70089876H263.44865185V743.04666231z m414.25224691-469.51349664H346.29910124v-248.52416284h331.40179752V273.53316567z m-55.23406443-82.85044938v-82.85044939H401.53316567v82.85044939h220.93366866zM677.70089876 743.01818249H346.29910124V632.55134815h331.40179752v110.46683434z"  horiz-adv-x="1024" />

    
    <glyph glyph-name="huabi" unicode="&#58975;" d="M937.12164628 584.2412302800001l-81.02636102-81.02636104c-8.26171787-8.26083896-21.61933417-8.26083896-29.88017315 0L631.1190333 698.31094805c-8.26171787 8.26171787-8.26171787 21.61933417 0 29.88017314l81.02636104 81.02636104c32.86757549 32.86757549 86.29979766 32.86757549 119.34315527-1e-8l105.63309667-105.63309667c33.04335674-32.86757549 33.04335674-86.29979766 0-119.34315528z m-375.60495058 74.34755331L99.96438799 197.03647588 62.70316016-16.514874609999993c-5.09765625-28.82460674 20.03642403-53.78290576 48.86191054-48.86191055l213.55135049 37.43788799 461.55230772 461.55230772c8.26083896 8.26083896 8.26083896 21.61845528 0 29.87929424L591.5726501 658.58878359c-8.43749912 8.26171787-21.79511542 8.26171787-30.0559544 0zM280.12169815 236.58373799000003a24.5056623 24.5056623 0 0 0 0 34.80029033L550.79491924 542.0581283199999c9.66621006 9.66796787 25.13408028 9.66796787 34.80028945 0s9.66796787-25.13408028 0-34.80029033L314.92286738 236.58373799000003a24.5056623 24.5056623 0 0 0-34.80029033 0zM216.66994472 88.76665957h84.36620479v-63.80155723l-113.36659277-19.86064277-54.66269092 54.66181201L152.87014531 173.13286434999998h63.80155723v-84.36620478z"  horiz-adv-x="1024" />

    
    <glyph glyph-name="lajitong-kongxin" unicode="&#58976;" d="M800.43349333 748.15374222H657.21230222c0 40.192-32.58140445 72.77340445-72.77340444 72.77340445H438.89322667c-40.192 0-72.77340445-32.58140445-72.77340445-72.77226667h-143.22346667c-41.47313778 0-75.09560889-33.62360889-75.09560888-75.09788445v-68.12558222c0-41.47427555 33.62133333-75.09674667 75.09674666-75.09674666h-2.32448v-507.08593778c0-41.47541333 33.62247111-75.09788445 75.09788445-75.09788444h431.99032889c41.47427555 0 75.09674667 33.62247111 75.09674666 75.09788444V529.8358044500001h-2.32334222c41.47427555 0 75.09674667 33.62247111 75.09674667 75.09788444v68.12444444c-0.00113778 41.47427555-33.62247111 75.09560889-75.09788445 75.09560889z m-70.45006222-695.71697777c-0.11377778-3.55328-1.98314667-31.64615111-31.81340444-32.01137778h-372.87253334c-31.84526222 0.39139555-31.82364445 32.38115555-31.82364444 32.38115555l-0.12743111-0.03640889V529.8358044500001h436.63701333v-477.39904z m36.38613334 550.17244444H256.96142222c-20.09656889 0-36.38613333 16.29070222-36.38613333 36.38613333 0 20.09656889 16.28956445 36.38613333 36.38613333 36.38613333h509.41155556c20.09543111 0 36.38613333-16.28956445 36.38613333-36.38613333 0-20.09543111-16.29184-36.38613333-36.38727111-36.38613333zM438.89322667 93.19765332999998c20.09543111 0 36.38613333 16.29070222 36.38613333 36.38613334V420.67626667c0 20.09543111-16.29070222 36.38613333-36.38613333 36.38613333-20.09656889 0-36.38613333-16.29070222-36.38613334-36.38613333v-291.09248c0-20.09543111 16.28956445-36.38613333 36.38613334-36.38613334z m145.54567111 0c20.09543111 0 36.38613333 16.29070222 36.38613333 36.38613334V420.67626667c0 20.09543111-16.29070222 36.38613333-36.38613333 36.38613333s-36.38613333-16.29070222-36.38613333-36.38613333v-291.09248c0-20.09543111 16.29070222-36.38613333 36.38613333-36.38613334z"  horiz-adv-x="1024" />

    
    <glyph glyph-name="chexiao" unicode="&#58977;" d="M596.677 647.877c204.8 0 372.185-165.415 372.185-372.185S801.477-96.49199999999996 596.677-96.49199999999996H435.2c-15.754 0-25.6 11.815-25.6 27.569v63.015c0 15.754 11.815 29.539 27.57 29.539h159.507c139.815 0 252.061 112.246 252.061 252.061S736.492 527.754 596.677 527.754H322.954s-15.754 0-21.662-1.97c-15.754-7.876-11.815-19.692 1.97-33.476l96.492-96.493c11.815-11.815 9.846-29.538-1.97-41.353l-43.322-43.324c-11.816-11.815-25.6-11.815-37.416-1.969l-256 256a24.96 24.96 0 0 0 0 35.446l254.03 254.031c11.816 11.816 31.509 11.816 41.355 0l41.354-41.354c11.815-11.815 11.815-31.507 0-41.354l-96.493-96.492c-11.815-11.815-11.815-25.6 7.877-25.6h13.785l273.723-1.97z"  horiz-adv-x="1024" />

    
    <glyph glyph-name="github" unicode="&#59160;" d="M511.968 822.848q119.424 0 220.288-58.848t159.712-159.712 58.848-220.288q0-143.424-83.712-258.016t-216.288-158.56q-15.424-2.848-22.848 4t-7.424 17.152q0 1.728 0.288 43.712t0.288 76.864q0 55.424-29.728 81.152 32.576 3.424 58.56 10.272t53.728 22.272 46.272 38.016 30.272 60 11.712 86.016q0 68-45.152 117.728 21.152 52-4.576 116.576-16 5.152-46.272-6.272t-52.576-25.152l-21.728-13.728q-53.152 14.848-109.728 14.848t-109.728-14.848q-9.152 6.272-24.288 15.424t-47.712 22.016-48.576 7.712q-25.728-64.576-4.576-116.576-45.152-49.728-45.152-117.728 0-48.576 11.712-85.728t30.016-60 46.016-38.272 53.728-22.272 58.56-10.272q-22.272-20.576-28-58.848-12-5.728-25.728-8.576t-32.576-2.848-37.44 12.288-31.712 35.712q-10.848 18.272-27.712 29.728t-28.288 13.728l-11.424 1.728q-12 0-16.576-2.56t-2.848-6.56 5.152-8 7.424-6.848l4-2.848q12.576-5.728 24.864-21.728t18.016-29.152l5.728-13.152q7.424-21.728 25.152-35.136t38.272-17.152 39.712-4 31.712 2.016l13.152 2.272q0-21.728 0.288-50.56t0.288-31.136q0-10.272-7.424-17.152t-22.848-4q-132.576 44-216.288 158.56t-83.712 258.016q0 119.424 58.848 220.288t159.712 159.712 220.288 58.848zM239.392 192.576q1.728 4-4 6.848-5.728 1.728-7.424-1.152-1.728-4 4-6.848 5.152-3.424 7.424 1.152zM257.12 173.152q4 2.848-1.152 9.152-5.728 5.152-9.152 1.728-4-2.848 1.152-9.152 5.728-5.728 9.152-1.728zM274.272 147.424q5.152 4 0 10.848-4.576 7.424-9.728 3.424-5.152-2.848 0-10.272t9.728-4zM298.272 123.424q4.576 4.576-2.272 10.848-6.848 6.848-11.424 1.728-5.152-4.576 2.272-10.848 6.848-6.848 11.424-1.728zM330.848 109.152q1.728 6.272-7.424 9.152-8.576 2.272-10.848-4t7.424-8.576q8.576-3.424 10.848 3.424zM366.848 106.272q0 7.424-9.728 6.272-9.152 0-9.152-6.272 0-7.424 9.728-6.272 9.152 0 9.152 6.272zM399.968 112q-1.152 6.272-10.272 5.152-9.152-1.728-8-8.576t10.272-4.576 8 8z"  horiz-adv-x="1024" />

    
    <glyph glyph-name="xiaoxi" unicode="&#58965;" d="M303.08-68.37l-3.12 0.09c-46.41 0.36-83.49 48.03-83.49 94.5v62.22H154.25c-62.22 0-93.33 31.11-93.33 93.33V679.53c0 62.22 31.11 93.33 84.75 93.33h723.36c62.94 0 94.05-31.11 94.05-93.33v-497.76c0-62.22-31.11-93.33-93.33-93.33H465.32c-33.15-45.93-86.04-118.71-95.22-127.89a95.52 95.52 0 0 0-67.02-28.92zM154.25 710.64c-37.11 0-31.11-31.11-31.11-31.11v-497.76s1.32-32.43 31.11-31.11h124.44v-124.44c0-10.23 11.73-28.38 21.99-28.38l2.55-0.09c2.07 0.03 11.25 0.66 20.1 9.51 6.63 7.35 52.38 69.69 92.52 125.43L425.75 146.42999999999995l444.03 4.2c31.11 0 31.11 31.11 31.11 31.11V679.5s0 31.11-31.11 31.11H154.25z m202.2-295.53a50.52 50.52 0 1 0-101.07-0.03 50.52 50.52 0 0 0 101.07 0.03z m209.04 0a50.52 50.52 0 1 0-101.07-0.03 50.52 50.52 0 0 0 101.07 0.03z m208.98 0a50.52 50.52 0 1 0-101.07-0.03 50.52 50.52 0 0 0 101.07 0.03z"  horiz-adv-x="1024" />

    
    <glyph glyph-name="tishi-xianxing" unicode="&#58966;" d="M512.30692344-95.99990624999998A479.99298281 479.99298281 0 1 0 991.99990625 383.69307656 480.29204531 480.29204531 0 0 0 512.30692344-95.99990624999998z m0 885.63291094a405.93992812 405.93992812 0 1 1 405.88086562-405.93992813 406.11992813 406.11992813 0 0 1-405.88086562 405.93992813zM511.94786094 623.54003719q59.96150531 0 59.96150531-59.96244281v-179.88451782q0-59.96244281-59.96244281-59.96244281-59.96150531 0-59.96150532 59.96244281V563.57759437q0 59.96244281 59.96244282 59.96244282zM511.94786094 263.77006500000005q59.96150531 0 59.96150531-59.96244281 0-59.96150531-59.96244281-59.96150532-59.96150531 0-59.96150532 59.96244282 0 59.96150531 59.96244282 59.96150531z"  horiz-adv-x="1024" />

    
    <glyph glyph-name="tishi-mianxing" unicode="&#58968;" d="M512 839.11146667A455.11146667 455.11146667 0 1 1 967.11146667 384 455.11146667 455.11146667 0 0 1 512 839.11146667z m45.51146667-637.15626667a45.51146667 45.51146667 0 0 0-91.02293334 0V429.51146667a45.51146667 45.51146667 0 0 0 91.02293334 0zM512 520.53333333a45.51146667 45.51146667 0 1 0 45.51146667 45.51146667A45.51146667 45.51146667 0 0 0 512 520.53333333z"  horiz-adv-x="1024" />

    
    <glyph glyph-name="guanbi" unicode="&#58969;" d="M570.75875 384l368.8921875 369.20625a41.476875 41.476875 0 1 1-58.75875 58.75875L512 442.75875 142.79375 811.6509375a41.476875 41.476875 0 0 1-58.75875-58.75875L453.24125 384 84.3490625 14.793750000000045a41.476875 41.476875 0 1 1 58.75875-58.75875L512 325.24125000000004l369.20625-368.8921875a41.476875 41.476875 0 1 1 58.75875 58.75875z"  horiz-adv-x="1024" />

    
    <glyph glyph-name="jinggao" unicode="&#58970;" d="M989.789 38.515L571.231 782.962c-26.448 47.041-92.57 47.041-119.018 0L33.655 38.515c-26.448-47.041 6.612-105.843 59.509-105.843H930.28c52.897 0 85.958 58.801 59.509 105.843zM467.794 530.619c12.28 14.738 27.887 22.109 46.929 22.109 19.051 0 34.649-7.296 46.937-21.814 12.206-14.555 18.311-32.758 18.311-54.645 0-18.828-25.49-157.304-33.985-258.047h-61.4c-7.459 100.741-35.114 239.216-35.114 258.047 0.003 21.555 6.118 39.683 18.322 54.35z m92.997-479.023c-12.911-13.965-28.277-20.929-46.066-20.929-17.781 0-33.156 6.965-46.067 20.929-12.877 13.928-19.283 30.805-19.283 50.63 0 19.713 6.405 36.774 19.283 51.072 12.911 14.297 28.286 21.445 46.067 21.445 17.789 0 33.156-7.149 46.066-21.445 12.877-14.297 19.291-31.357 19.291-51.072 0-19.827-6.413-36.703-19.291-50.63z"  horiz-adv-x="1024" />

    
    <glyph glyph-name="chenggong" unicode="&#58971;" d="M512 827.0765625C266.46125 827.0765625 68.9234375 629.5387499999999 68.9234375 384S266.46125-59.07656250000002 512-59.07656250000002 955.0765625 138.46124999999995 955.0765625 384 757.53875 827.0765625 512 827.0765625z m247.3846875-332.3071875l-282.46125-286.153125c-11.0775-11.0775-29.53875-11.0775-40.6153125 0L281.230625 365.5378125c-11.0765625 11.0765625-11.0765625 29.5378125 0 40.6153125l40.6153125 40.6153125c11.0775 11.0765625 29.53875 11.0765625 40.6153125 0l81.230625-83.0775c7.3846875-7.38375 20.308125-7.38375 27.6928125 0L678.153125 577.846875c11.0765625 11.0775 29.5378125 11.0775 40.6153125 0l40.6153125-40.6153125c12.9234375-11.0765625 12.9234375-29.53875 0-42.46125z"  horiz-adv-x="1024" />

    
    <glyph glyph-name="shuaxin-you" unicode="&#58963;" d="M70.0108856 506.61710909C29.28153501 360.29267443000003 73.02811024 201.90146255000002 180.13145307 94.79811973000005c165.93462702-165.93462702 437.463631-165.93462702 603.39755091-0.00070711 52.79754203 52.79754203 92.01863386 119.17153426 110.12056746 191.57926865 6.03374216 24.13567576-7.54270803 46.76309276-30.17012504 51.28857617-24.13638287 6.03444927-46.76379987-7.54200093-51.28928326-30.16941794-15.08470896-57.32302543-46.76309276-110.11986035-89.00140923-152.35817682C590.44147656 22.39038532999996 373.21827338 22.39038532999996 240.47099602 155.13766268999996c-85.98418459 85.98418459-119.17153426 212.69771978-89.00070212 330.36028816 16.59296773 55.81476667 46.76309276 110.11986035 89.00070212 152.35746972 111.62882623 111.62882623 283.59719541 129.73075982 414.836214 52.79754203l-25.64464163-25.64464163c-21.11845113-21.11845113-12.06748433-57.32231832 16.59367483-64.86502636l171.96836919-45.254834c28.66115916-7.54270803 54.3058008 18.1019336 46.76309276 46.76309276l-45.254834 171.96836919c-6.03374216 30.17012503-42.23760936 39.22109183-63.35676759 18.1019336l-39.22038473-39.22038473c-165.93533413 108.61160159-390.70053824 92.01863386-537.02497289-54.30580079-52.79683492-52.79683492-92.01792676-119.17082714-110.11986036-191.57856155"  horiz-adv-x="1024" />

    
    <glyph glyph-name="shuaxin-zuo" unicode="&#58959;" d="M512 803.4304c-85.43952592 0-163.11182222-23.30168889-233.01688889-69.90506667l-31.06891852 46.60337778c-15.53445925 23.30168889-46.60337778 15.53445925-54.37060741-7.76722963l-54.3706074-170.87905185c0-15.53445925 15.53445925-38.83614815 31.06891852-38.83614815l178.64628148 7.76722963c23.30168889 0 38.83614815 31.06891852 23.30168889 46.60337778l-38.83614815 46.60337778v7.76722963c46.60337778 38.83614815 116.50844445 54.37060741 178.64628148 54.3706074 186.41351111 0 341.7581037-155.34459259 341.7581037-341.7581037S698.41351111 42.24189630000001 512 42.24189630000001 170.2418963 197.58648889000006 170.2418963 384c0 23.30168889-15.53445925 38.83614815-38.83614815 38.83614815s-38.83614815-15.53445925-38.83614815-38.83614815c0-233.01688889 186.41351111-419.4304 419.4304-419.4304S931.4304 150.98311110999998 931.4304 384 745.01688889 803.4304 512 803.4304z"  horiz-adv-x="1024" />

    
    <glyph glyph-name="suoxiao" unicode="&#58960;" d="M466.48853333 19.91146666999998c-227.5552 0-409.6 182.04373333-409.6 409.6s182.0448 409.6 409.6 409.6 409.6-182.0448 409.6-409.6-182.04373333-409.6-409.6-409.6z m0 728.17706666c-177.49333333 0-318.57706667-141.08373333-318.57706666-318.57706666S288.9952 110.93333332999998 466.48853333 110.93333332999998 785.06666667 252.01813332999996 785.06666667 429.51146667 643.98186667 748.08853333 466.48853333 748.08853333zM921.6-71.11146667000003c-13.65333333 0-22.7552 4.55146667-31.85813333 13.65333334L694.0448 138.24c-18.2048 18.2048-18.2048 45.51146667 0 63.7152 18.20373333 18.2048 45.5104 18.2048 63.7152 0l195.69813333-195.69706667c18.20373333-18.2048 18.20373333-45.51146667 0-63.71626666-9.10293333-9.10186667-18.2048-13.65333333-31.85813333-13.65333334zM603.02186667 384h-273.06666667c-27.30666667 0-45.5104 18.2048-45.5104 45.51146667s18.20373333 45.5104 45.5104 45.5104h273.06666667c27.30666667 0 45.51146667-18.20373333 45.51146666-45.5104S630.32853333 384 603.02186667 384z"  horiz-adv-x="1024" />

    
    <glyph glyph-name="quanping1" unicode="&#58961;" d="M909-63H780a30 30 0 0 0 0 60h99a20 20 0 0 1 20 20v99a30 30 0 0 0 60 0v-129a50 50 0 0 0-50-50z m20 685a30 30 0 0 0-30 30v99a20 20 0 0 1-20 20h-99a30 30 0 0 0 0 60h129a50 50 0 0 0 50-50v-129a30 30 0 0 0-30-30z m-157-28v-420a50 50 0 0 0-50-50H302a50 50 0 0 0-50 50V594a50 50 0 0 0 50 50h420a50 50 0 0 0 50-50z m-60-30a20 20 0 0 1-20 20H332a20 20 0 0 1-20-20v-360a20 20 0 0 1 20-20h360a20 20 0 0 1 20 20V564zM244 771h-99a20 20 0 0 1-20-20v-99a30 30 0 0 0-60 0V781a50 50 0 0 0 50 50h129a30 30 0 0 0 0-60zM95 146a30 30 0 0 0 30-30v-99a20 20 0 0 1 20-20h99a30 30 0 0 0 0-60H115a50 50 0 0 0-50 50V116a30 30 0 0 0 30 30z"  horiz-adv-x="1024" />

    
    <glyph glyph-name="fangda" unicode="&#58962;" d="M466.48853333 19.91146666999998c-225.28 0-409.6 184.32-409.6 409.6s184.32 409.6 409.6 409.6 409.6-184.32 409.6-409.6-184.32-409.6-409.6-409.6z m0 728.17706666c-175.21706667 0-318.57706667-143.36-318.57706666-318.57706666S291.27146667 110.93333332999998 466.48853333 110.93333332999998 785.06666667 254.29333333 785.06666667 429.51146667 641.70666667 748.08853333 466.48853333 748.08853333zM921.6-71.11146667000003c-11.37813333 0-22.7552 4.55146667-31.85813333 13.65333334l-197.97333334 197.97333333c-18.20373333 18.2048-18.20373333 45.51146667 0 63.71626667 18.2048 18.20373333 45.51146667 18.20373333 63.71626667 0l197.97333333-197.97333334c18.20373333-18.2048 18.20373333-45.51146667 0-63.71626666-9.10293333-9.10186667-20.48-13.65333333-31.85813333-13.65333334zM614.4 384H318.57813333C293.54666667 384 273.06666667 404.48 273.06666667 429.51146667s20.48 45.5104 45.51146666 45.5104H614.4c25.03146667 0 45.51146667-20.48 45.51146667-45.5104S639.43146667 384 614.4 384zM466.48853333 236.08853333000002c-25.0304 0-45.5104 20.48-45.5104 45.51146667V577.42186667c0 25.03146667 20.48 45.51146667 45.5104 45.51146666S512 602.4533333300001 512 577.42186667V281.6c0-25.03146667-20.48-45.51146667-45.51146667-45.51146667z"  horiz-adv-x="1024" />

    
    <glyph glyph-name="tupian" unicode="&#58958;" d="M383.42832031 544.71416016q0-40.17832031-28.125-68.30332032t-68.30332031-28.125-68.30332031 28.125-28.125 68.30332032 28.125 68.30332031 68.30332031 28.125 68.30332031-28.125 28.125-68.30332031zM897.71416016 351.85839844v-225H190.57167969V223.28583984L351.28583984 384l80.35664063-80.35751953 257.14335937 257.14335937z m48.21416015 353.57080078H142.35839844q-6.52939453 0-11.30097656-4.77070313t-4.77070313-11.30009765V78.64160156000003q0-6.52851562 4.77070313-11.30009765t11.30097656-4.77070313h803.57080078q6.52939453 0 11.30009766 4.77070313t4.77158203 11.30009765V689.35839844q0 6.52851562-4.77158203 11.30009765t-11.30009766 4.77070313z m80.35751953-16.07080078V78.64160156000003q0-33.14707031-23.60478515-56.75185547t-56.75273438-23.60478515H142.35839844q-33.14794922 0-56.75273438 23.60478515T62 78.64248047000001V689.35839844Q62 722.50458984 85.60478516 746.109375T142.35839844 769.71416016h803.57080078q33.14794922 0 56.75273437-23.60478516t23.60478516-56.75185547z"  horiz-adv-x="1097" />

    
    <glyph glyph-name="biaoge" unicode="&#58957;" d="M955.9776 93.70773333c0-46.95893333-38.42133333-85.38026667-85.38026667-85.38026666h-717.19466666c-46.95893333 0-85.38026667 38.42133333-85.38026667 85.38026666V674.29226667c0 46.95893333 38.42133333 85.38026667 85.38026667 85.38026666h717.1936c46.95893333 0 85.38026667-38.42133333 85.38026666-85.38026666v-580.58453334zM341.23946667 605.98826667c0 9.60533333-7.47093333 17.07626667-17.07626667 17.07626666H153.40266667c-9.60533333 0-17.07626667-7.47093333-17.07626667-17.07626666v-102.45653334c0-9.60533333 7.47093333-17.07626667 17.07626667-17.07626666h170.76053333c9.60533333 0 17.07626667 7.47093333 17.07626667 17.07626666v102.45653334z m0-204.912c0 9.60533333-7.47093333 17.07626667-17.07626667 17.07626666H153.40266667c-9.60533333 0-17.07626667-7.47093333-17.07626667-17.07626666v-102.45653334c0-9.60533333 7.47093333-17.07626667 17.07626667-17.07626666h170.76053333c9.60533333 0 17.07626667 7.47093333 17.07626667 17.07626666v102.45653334z m0-204.91306667c0 9.60533333-7.47093333 17.07626667-17.07626667 17.07626667H153.40266667c-9.60533333 0-17.07626667-7.47093333-17.07626667-17.07626667v-102.45653333c0-9.60533333 7.47093333-17.07626667 17.07626667-17.07626667h170.76053333c9.60533333 0 17.07626667 7.47093333 17.07626667 17.07626667v102.45653333z m273.21706666 409.82506667c0 9.60533333-7.47093333 17.07626667-17.07626666 17.07626666H426.61973333c-9.60533333 0-17.07626667-7.47093333-17.07626666-17.07626666v-102.45653334c0-9.60533333 7.47093333-17.07626667 17.07626666-17.07626666h170.76053334c9.60533333 0 17.07626667 7.47093333 17.07626666 17.07626666v102.45653334z m0-204.912c0 9.60533333-7.47093333 17.07626667-17.07626666 17.07626666H426.61973333c-9.60533333 0-17.07626667-7.47093333-17.07626666-17.07626666v-102.45653334c0-9.60533333 7.47093333-17.07626667 17.07626666-17.07626666h170.76053334c9.60533333 0 17.07626667 7.47093333 17.07626666 17.07626666v102.45653334z m0-204.91306667c0 9.60533333-7.47093333 17.07626667-17.07626666 17.07626667H426.61973333c-9.60533333 0-17.07626667-7.47093333-17.07626666-17.07626667v-102.45653333c0-9.60533333 7.47093333-17.07626667 17.07626666-17.07626667h170.76053334c9.60533333 0 17.07626667 7.47093333 17.07626666 17.07626667v102.45653333z m273.216 409.82506667c0 9.60533333-7.47093333 17.07626667-17.07626666 17.07626666H699.8368c-9.60533333 0-17.07626667-7.47093333-17.07626667-17.07626666v-102.45653334c0-9.60533333 7.47093333-17.07626667 17.07626667-17.07626666h170.76053333c9.60533333 0 17.07626667 7.47093333 17.07626667 17.07626666v102.45653334z m0-204.912c0 9.60533333-7.47093333 17.07626667-17.07626666 17.07626666H699.8368c-9.60533333 0-17.07626667-7.47093333-17.07626667-17.07626666v-102.45653334c0-9.60533333 7.47093333-17.07626667 17.07626667-17.07626666h170.76053333c9.60533333 0 17.07626667 7.47093333 17.07626667 17.07626666v102.45653334z m0-204.91306667c0 9.60533333-7.47093333 17.07626667-17.07626666 17.07626667H699.8368c-9.60533333 0-17.07626667-7.47093333-17.07626667-17.07626667v-102.45653333c0-9.60533333 7.47093333-17.07626667 17.07626667-17.07626667h170.76053333c9.60533333 0 17.07626667 7.47093333 17.07626667 17.07626667v102.45653333z"  horiz-adv-x="1024" />

    
    <glyph glyph-name="shanchu" unicode="&#58954;" d="M512.2 831.6c-247.4 0-447.9-200.6-447.9-448s200.5-447.9 447.9-447.9 447.9 200.5 447.9 447.9-200.5 448-447.9 448z m203.5-605.9c12.5-12.5 12.5-33.1 0-45.6s-33.1-12.5-45.6 0l-158 158-158-158c-12.5-12.5-33.1-12.5-45.6 0s-12.5 33.1 0 45.6l158 158-158 158c-12.5 12.5-12.5 33.1 0 45.6s33.1 12.5 45.6 0l158-158 158 158c12.5 12.5 33.1 12.5 45.6 0s12.5-33.1 0-45.6l-158-158 158-158z"  horiz-adv-x="1024" />

    
    <glyph glyph-name="xian" unicode="&#58956;" d="M896 357.86666667H128c-14.08 0-25.6 11.52-25.6 25.6s11.52 25.6 25.6 25.6h768c14.08 0 25.6-11.52 25.6-25.6s-11.52-25.6-25.6-25.6z"  horiz-adv-x="1024" />

    
    <glyph glyph-name="sanjiao-shang" unicode="&#58945;" d="M107.09667969 185.73017577999997l389.54179687 414.03339844c1.16630859 1.16630859 2.72109375 1.55478516 3.49892578 1.55478516s2.33261719 0 3.49892579-1.1663086l414.4227539-389.54179687c10.49677734-10.10742188 27.21357422-9.33046875 36.93251953 1.16630859s9.33046875 27.21357422-1.16630859 36.93251953L539.79189453 638.25087891c-11.27373047 10.49677734-25.65878906 15.93896484-41.20927734 15.55048828-15.16201172-0.38847656-29.54619141-6.99785156-40.04296875-17.88310547L68.99785156 221.49550781000005C64.33261719 216.44179687999997 62 209.83242186999996 62.00087891 203.61240234000002c0-6.99785156 2.72109375-13.99570313 8.16416015-19.04941406 10.49677734-10.10742188 27.21357422-9.33046875 36.93251953 1.1663086z"  horiz-adv-x="1024" />

    
    <glyph glyph-name="sanjiao-you" unicode="&#58946;" d="M278.31728516-5.967187500000023l385.00576172 385.00576172c2.48027344 2.48115234 2.48027344 6.94599609-1e-8 9.92285156l-385.99804687 385.99804688c-5.95371094 5.95371094-9.42626953 14.38769531-9.42626953 22.82255859v3.96914063C267.89873047 819.61230469 282.28642578 834 300.14755859 834h3.96914063c8.43486328 0 16.86884766-3.47255859 22.82255859-9.42626953L747.66728516 403.84570313c10.91513672-10.91513672 10.91513672-28.77626953 0-39.69140626L327.93066406-55.58144531000005c-6.44941406-6.44941406-15.38085938-10.41855469-24.8071289-10.41855469-19.34912109 0-35.2265625 15.8765625-35.2265625 35.2265625 0 8.9296875 3.97001953 17.86025391 10.41943359 24.80625z"  horiz-adv-x="1024" />

    
    <glyph glyph-name="sanjiao-xia" unicode="&#58950;" d="M511.92718222 165.51025777999996a35.93557333 35.93557333 0 0 0-25.48622222 10.55857777L74.18311111 588.25386667a36.19043555 36.19043555 0 0 0 0.14563556 51.33653333 36.29966222 36.29966222 0 0 0 51.33653333 0.14563555L512 253.47413332999997 898.33472 639.77244445a36.19043555 36.19043555 0 0 0 51.33653333-0.14563556 36.29966222 36.29966222 0 0 0 0.14563556-51.33653334L537.55904 176.03242666999995a35.97198222 35.97198222 0 0 0-25.48622222-10.55857778h-0.14563556z"  horiz-adv-x="1024" />

    
    <glyph glyph-name="sanjiao-zuo" unicode="&#58952;" d="M281.5 361.1l415.8-415.8c12.4-12.4 32.8-12.4 45.3 0 12.4 12.4 12.4 32.8 0 45.3L326.7 406.4c-12.4 12.4-32.8 12.4-45.3 0-12.4-12.4-12.4-32.8 0.1-45.3zM697.3 822.7L281.5 406.9c-12.4-12.4-12.4-32.8 0-45.3 12.4-12.4 32.8-12.4 45.3 0l415.8 415.8c12.4 12.4 12.4 32.8 0 45.3-12.5 12.4-32.9 12.4-45.3 0z"  horiz-adv-x="1024" />

    
    <glyph glyph-name="paihang" unicode="&#58944;" d="M70.13136814 660.1677331l0 110.46812886a55.23406444 55.23406444 0 0 0 55.2327699 55.2327699l331.40179752 0A55.23406444 55.23406444 0 0 0 512 770.63586196l0-110.46812886a55.23406444 55.23406444 0 0 0-55.23406444-55.2327699l-331.40179752 0a55.23406444 55.23406444 0 0 0-55.2327699 55.2327699z m55.2327699-386.63456743L677.70089876 273.53316567a55.23406444 55.23406444 0 0 1 55.23406444 55.23276989l0 110.46812888A55.23406444 55.23406444 0 0 1 677.70089876 494.46683433l-552.33676072 0a55.23406444 55.23406444 0 0 1-55.2327699-55.23276989l0-110.46812888a55.23406444 55.23406444 0 0 1 55.2327699-55.23276989z m0-331.40179753L898.63586196-57.86863186000005a55.23406444 55.23406444 0 0 1 55.2327699 55.2327699l0 110.46812886a55.23406444 55.23406444 0 0 1-55.2327699 55.2327699l-773.27172392 0a55.23406444 55.23406444 0 0 1-55.2327699-55.2327699l0-110.46812886a55.23406444 55.23406444 0 0 1 55.2327699-55.2327699z"  horiz-adv-x="1024" />

    
    <glyph glyph-name="caidan" unicode="&#58934;" d="M63.976 768.024v-127.909H959.43v127.91H63.976zM319.82 320.297h639.61V448.212H319.82v-127.915z m0-319.78h639.61V128.459H319.82v-127.942zM63.976 320.297H191.9V448.212H63.976v-127.915z m0-319.78H191.9V128.459H63.976v-127.942z"  horiz-adv-x="1024" />

    
    <glyph glyph-name="anniu" unicode="&#58935;" d="M771.9996875-96H252.0003125A220.2403125 220.2403125 0 0 0 32 124.00031249999995V643.9996874999999C32 765.28125 130.6803125 864 252.0003125 864h519.999375C893.3196875 864 992 765.2803125 992 643.9996874999999v-519.999375C992 2.71875 893.3196875-96 771.9996875-96zM252.0003125 823.9996874999999a180.1996875 180.1996875 0 0 1-180-180v-519.999375c0-99.24 80.76-180 180-180h519.999375c99.24 0 180 80.76 180 180V643.9996874999999c0 99.24-80.76 180-180 180H252.0003125zM411.9996875 184.00031249999995A19.959375 19.959375 0 0 0 392 204V564c0 7.32 4.0003125 14.0803125 10.3996875 17.52a19.7596875 19.7596875 0 0 0 20.4-0.72l280.0003125-180a19.8796875 19.8796875 0 0 0 0.0403125-33.6403125l-280.0003125-180a20.0803125 20.0803125 0 0 0-10.8403125-3.159375z m20.000625 343.359375v-286.719375L654.9996875 384 432.0003125 527.3596875000001z"  horiz-adv-x="1024" />

    
    <glyph glyph-name="shoucang" unicode="&#58937;" d="M512.60681482-61.64480000000003L158.83377778 305.72088888999997c-30.70482963 31.91845925-57.04059259 66.5069037-78.40047408 102.67306666-32.768 55.94832592-49.88017778 107.52758518-50.85108148 153.64551112-2.91271111 144.66465185 112.50346667 264.69262222 257.16811853 267.60533333 57.28331852 1.21362963 112.13937778-15.89854815 158.50002962-49.27336297 26.57848889-19.05398518 49.39472592-43.20521482 67.11371852-70.63324444 46.60337778 71.96823703 126.8242963 118.08616297 215.17653333 119.90660741h5.33997037c142.23739259 0 259.35265185-114.32391111 262.26536296-257.16811852 1.57771852-78.88592592-39.68568889-177.79674075-100.2458074-240.42002963l-382.29333333-393.70145185zM292.21167408 760.4679111099999h-4.00497778c-106.55668148-2.18453333-191.51075555-90.53677037-189.32622222-197.09345186 0.72817778-34.10299259 14.56355555-74.3954963 41.38477037-120.02797036 18.56853333-31.55437037 41.6274963-61.77374815 68.57007407-89.80859259l304.13558518-315.9077926 332.41315555 342.36491852c47.93837037 49.51608889 81.92 129.85837037 80.70637038 190.90394075-2.06317037 105.22168889-88.35223703 189.44758518-193.08847408 189.44758518h-3.8836148c-81.92-1.57771852-154.13096297-54.97742222-179.85991112-132.77108148l-0.12136296-0.48545185c-5.33997037-15.65582222-20.02488889-26.09303703-36.53025185-26.09303704-16.50536297 0-31.19028148 10.55857778-36.53025185 26.09303704l-0.12136297 0.36408888c-12.62174815 38.47205925-37.86524445 72.69641482-70.87597037 96.48355555-33.37481482 24.02986667-72.21096297 36.53025185-112.86755555 36.53025186z"  horiz-adv-x="1024" />

    
    <glyph glyph-name="tubiao" unicode="&#58943;" d="M774.40716709 851.2122813v-38.40017686c-25.59952206-12.79886726-38.40017686-12.79886726-51.20083171-25.60130961-12.80065482-12.79886726-25.6013096-12.79886726-38.40196439-25.59952207 0-12.80065482-12.79886726-25.6013096-25.59952205-38.40196441 0 0 0-12.79886726-12.80065482-12.79886725v-12.8006548l-102.40345088-640.01843985c0-25.6013096 0-51.20261922 12.79886726-64.00327402 12.80244235-12.79886726 38.40196442-25.59952206 76.80392883-25.59952207v-38.40196442H249.59283291v38.40196442c38.40017686 0 76.80214126 12.79886726 102.4034509 25.59952207s51.20083166 38.40196442 51.20083168 64.00327402L531.19830086 710.40686598c0 25.6013096 0 51.20261922-12.79886723 51.20261926 0 25.59952206-25.6013096 25.59952206-64.00327404 38.40017684h-25.59952206v51.20261922h345.608742z"  horiz-adv-x="1024" />

    
    <glyph glyph-name="shijianzhou" unicode="&#58932;" d="M159.333 322.2V445.8c48.2 12.1 84 55.8 84 107.7 0 51.9-35.8 95.6-84 107.7V827.9c0 14.9-12.1 27-27 27s-27-12.1-27-27v-166.7c-48.2-12.1-84-55.8-84-107.7 0-51.9 35.8-95.6 84-107.7v-123.7c-48.2-12-84-55.7-84-107.6s35.8-95.6 84-107.7v-166.7c0-14.9 12.1-27 27-27s27 12.1 27 27V106.8c48.2 12.1 84 55.8 84 107.7s-35.8 95.6-84 107.7z m-78 231.3c0 28.1 22.9 51 51 51s51-22.9 51-51-22.9-51-51-51-51 22.9-51 51z m51-390c-28.1 0-51 22.9-51 51s22.9 51 51 51 51-22.9 51-51-22.9-51-51-51z m831 449.5h-590c-16.6 0-30 13.4-30 30s13.4 30 30 30h590c16.6 0 30-13.4 30-30s-13.4-30-30-30z m-170.6-174h-423.8c-14.2 0-25.6 11.5-25.6 25.6v8.7c0 14.2 11.5 25.6 25.6 25.6h423.7c14.2 0 25.6-11.5 25.6-25.6v-8.7c0.1-14.1-11.4-25.6-25.5-25.6zM963.333 271h-590c-16.6 0-30 13.4-30 30s13.4 30 30 30h590c16.6 0 30-13.4 30-30s-13.4-30-30-30z m-170.6-174h-423.8c-14.2 0-25.6 11.5-25.6 25.6v8.7c0 14.2 11.5 25.6 25.6 25.6h423.7c14.2 0 25.6-11.5 25.6-25.6v-8.7c0.1-14.1-11.4-25.6-25.5-25.6z"  horiz-adv-x="1024" />

    
    <glyph glyph-name="tianjia-circle" unicode="&#58967;" d="M925.79310313 384C925.79310313 612.5316196900001 740.53164125 797.79310313 512 797.79310313 283.46837562 797.79310313 98.20689687 612.5316196900001 98.20689687 384 98.20689687 155.46838031000004 283.46837562-29.793103129999963 512-29.793103129999963 740.53164125-29.793103129999963 925.79310313 155.46838031000004 925.79310313 384ZM545.10344844 417.10344844L545.10344844 615.69528375C545.10344844 634.10877188 530.28253812 648.82758656 512 648.82758656 493.59001344 648.82758656 478.89655156 633.99374906 478.89655156 615.69528375L478.89655156 417.10344844 280.30471156 417.10344844C261.89123281 417.10344844 247.17241344 402.28252969 247.17241344 384 247.17241344 365.59000688000003 262.00625094 350.89655156000003 280.30471156 350.89655156000003L478.89655156 350.89655156000003 478.89655156 152.30471624999996C478.89655156 133.89122812000005 493.71746188 119.17241344000001 512 119.17241344000001 530.40998656 119.17241344000001 545.10344844 134.00625093999997 545.10344844 152.30471624999996L545.10344844 350.89655156000003 743.69533813 350.89655156000003C762.1088 350.89655156000003 776.82758656 365.71747030999995 776.82758656 384 776.82758656 402.40999312 761.99376594 417.10344844 743.69533813 417.10344844L545.10344844 417.10344844ZM32 384C32 649.09667905 246.90331625 864 512 864 777.0967175 864 992 649.09667905 992 384 992 118.90332094999997 777.0967175-96 512-96 246.90331625-96 32 118.90332094999997 32 384Z"  horiz-adv-x="1024" />

    
    <glyph glyph-name="quanping" unicode="&#58933;" d="M965.08839466 228.65540740999995a38.83614815 38.83614815 0 0 1-38.83614815-38.83614816v-165.18308386l-197.54653984 197.54654106a38.83614815 38.83614815 0 0 1-54.88842312-54.88842312L871.36382461-30.252246509999964H706.18074075a38.83614815 38.83614815 0 0 1 0-77.6722963H978.03377778a25.89076502 25.89076502 0 0 1 25.89076503 25.89076503V189.81925924999996a38.83614815 38.83614815 0 0 1-38.83614815 38.83614816zM317.81925925-30.252246509999964h-165.18308386l197.54654106 197.54653984a38.83614815 38.83614815 0 0 1-54.88842312 54.88842312L97.74775349 24.63617538999995V189.81925924999996a38.83614815 38.83614815 0 0 1-77.6722963 0V-82.03377778000004a25.89076502 25.89076502 0 0 1 25.89076503-25.89076503h271.85303703a38.83614815 38.83614815 0 0 1 0 77.6722963zM978.03377778 877.99580445H706.18074075a38.83614815 38.83614815 0 0 1 0-77.6722963H874.47071645l-199.61780147-199.61780148a38.83614815 38.83614815 0 1 1 54.88842191-54.88842312L926.25224651 743.3638246099999v-163.11182223a38.83614815 38.83614815 0 0 1 77.6722963 0V852.10503941a25.89076502 25.89076502 0 0 1-25.89076503 25.89076504zM350.18271645 600.7057066699999L152.63617539 798.25224651h167.25434551a38.83614815 38.83614815 0 0 1 0 77.6722963H48.03748386a25.89076502 25.89076502 0 0 1-25.89076624-25.89076503v-271.85303703a38.83614815 38.83614815 0 0 1 77.6722963 0v163.11182222l195.47527941-195.47527942a38.83614815 38.83614815 0 1 1 54.88842312 54.88842312z"  horiz-adv-x="1024" />

    
    <glyph glyph-name="sousuo" unicode="&#58936;" d="M976.48033185-25.59190873L719.12612386 230.72666905000005A394.83417244 394.83417244 0 1 1 665.27333095 176.87387614l256.31857778-256.31857778a38.83614815 38.83614815 0 1 1 54.88842312 54.88842312zM414.90962963 163.92849422999996A317.16187614 317.16187614 0 1 0 732.07150577 481.09037037 317.42078461 317.42078461 0 0 0 414.90962963 163.92849422999996z"  horiz-adv-x="1024" />

    
    <glyph glyph-name="queding" unicode="&#58938;" d="M995.12168297 711.51818311l-1.55344594 1.55344594a38.83614815 38.83614815 0 0 1-54.88842311 0L382.54617244 157.45580206 89.72161539 450.53926756a38.83614815 38.83614815 0 0 1-54.8884219 0l-2.07126164-2.07126164a38.83614815 38.83614815 0 0 1 0-54.88842311L354.06633127 73.31081482000002a38.83614815 38.83614815 0 0 1 54.37060741 0h2.58907614a36.76488651 36.76488651 0 0 1 5.95487645 3.88361481l577.36406873 577.36406873a38.83614815 38.83614815 0 0 1 0.77672297 56.95968475z"  horiz-adv-x="1024" />

    
    <glyph glyph-name="tuichuquanping" unicode="&#58939;" d="M992.53260683-42.679813920000015l-198.06435556 198.06435556h165.18308265a38.83614815 38.83614815 0 0 1 0 77.6722963h-271.85303703a25.89076502 25.89076502 0 0 1-25.89076504-25.89076625v-271.85303703a38.83614815 38.83614815 0 1 1 77.6722963 0V99.20157984000002l198.06435555-198.06435555a38.83614815 38.83614815 0 0 1 54.88842313 54.88842312zM336.20170311 233.05683794000004H64.34866608a38.83614815 38.83614815 0 1 1 0-77.6722963h165.18308265l-198.06435556-198.06435556a38.83614815 38.83614815 0 0 1 54.88842313-54.88842311l198.06435555 196.76981687v-165.18308265a38.83614815 38.83614815 0 0 1 77.6722963 0V207.16607168999997a25.89076502 25.89076502 0 0 1-25.89076504 25.89076625zM958.6157037 609.50856651h-165.18308386l199.09998699 199.09998698a38.83614815 38.83614815 0 1 1-54.88842313 54.8884219l-199.09998576-199.09998576V829.58007349a38.83614815 38.83614815 0 1 1-77.6722963 0v-271.85303704a25.89076502 25.89076502 0 0 1 25.89076503-25.89076623h271.85303703a38.83614815 38.83614815 0 1 1 0 77.67229629zM324.29195022 868.41622164a38.83614815 38.83614815 0 0 1-38.83614816-38.83614815v-165.18308386L86.3558163 863.49697539A38.83614815 38.83614815 0 1 1 31.46739317 808.60855349l199.09998699-199.09998698H65.3842963a38.83614815 38.83614815 0 1 1 0-77.67229629h271.85303703a25.89076502 25.89076502 0 0 1 25.89076503 25.89076623V829.58007349a38.83614815 38.83614815 0 0 1-38.83614814 38.83614815z"  horiz-adv-x="1024" />

    
    <glyph glyph-name="tianjia" unicode="&#58940;" d="M965.08839466 422.83614815h-414.25224651v414.25224651a38.83614815 38.83614815 0 0 1-77.6722963 0v-414.25224651h-414.25224651a38.83614815 38.83614815 0 0 1 0-77.6722963h414.25224651v-414.25224651a38.83614815 38.83614815 0 0 1 77.6722963 0v414.25224651h414.25224651a38.83614815 38.83614815 0 0 1 0 77.6722963z"  horiz-adv-x="1024" />

    
    <glyph glyph-name="bianji" unicode="&#58955;" d="M850.65121185 776.76291201l54.88842313-54.88842312-372.56811498-372.56811497-88.54641778-33.65799467 33.65799467 88.54641778L850.65121185 776.76291201m0 99.1616308a25.89076502 25.89076502 0 0 1-18.38244386-7.50832117L415.16853689 451.31599053a25.89076502 25.89076502 0 0 1-5.95487525-9.06176831l-77.6722963-207.12612386A25.89076502 25.89076502 0 0 1 364.42263703 202.76464238000005l207.12612387 77.6722963a25.89076502 25.89076502 0 0 1 9.06176709 5.95487524l416.58241662 417.1002311a25.89076502 25.89076502 0 0 1 0 36.50597927l-128.1592889 128.41819735a25.89076502 25.89076502 0 0 1-18.38244386 7.50832117zM848.57995022 369.50117094999996v-401.30686339H97.74775349v750.83219673h401.3068634a38.83614815 38.83614815 0 0 1 38.83614813 38.83614815 38.83614815 38.83614815 0 0 1-38.83614813 38.83614815H45.96622222a25.89076502 25.89076502 0 0 1-25.89076503-25.89076504v-854.39525925a25.89076502 25.89076502 0 0 1 25.89076503-25.89076503h854.39525926a25.89076502 25.89076502 0 0 1 25.89076503 25.89076503v453.08839465a38.83614815 38.83614815 0 0 1-38.83614815 38.83614815 38.83614815 38.83614815 0 0 1-38.83614814-38.83614815z"  horiz-adv-x="1024" />

    


  </font>
</defs>
</svg>
